<?xml version="1.0" encoding="UTF-8"?>
<svg id="Layer_2" data-name="Layer 2" xmlns="http://www.w3.org/2000/svg" viewBox="0 0 686.9 178.92">
  <defs>
    <style>
      .cls-1 {
        letter-spacing: -.03em;
      }

      .cls-2 {
        font-family: FredokaOne-Regular, 'Fredoka One';
        font-size: 162.29px;
      }

      .cls-3 {
        letter-spacing: -.02em;
      }
    </style>
  </defs>
  <g id="Layer_1-2" data-name="Layer 1">
    <g>
      <g>
        <path d="M142.06,15.56c.88,8.96-.1,18.83-2.44,27.55-6.59,24.58-27.63,41.1-52.26,45.38,4.73-16.79,15.99-30.59,27.83-42.94-.51-.81-1.05.2-1.43.49-8.52,6.52-17.07,14.65-22.76,23.79-3.96,6.37-5.37,10.53-6.46,18.01-1.39,9.6-1.92,19.81-1.02,29.45,23.52.51,47.18,1.51,70.54,4.8-1.62,3.49-2.7,7.26-4.39,10.72-.61,1.26-2.1,5.07-3.52,5.1-17.71-7.59-36.76-11.9-55.91-13.9l15.72,4.67c12.67,3.82,24.56,9.6,36.1,15.97-1.15,1.89-8.85,11.53-10.32,11.52-.53,0-6.91-5.67-8.24-6.65-22.77-16.74-50.05-24.85-78.36-24.55l12.01,2.14c25.36,5.17,48.11,18.26,66.67,36.01-5.21,3.86-10.95,7-17.05,9.24-19.28-29.24-54.21-44.74-88.99-43.06l14.98,2.53c20.72,5.55,40.8,17.15,54.59,33.71.8.95,7.92,10.17,7.21,10.78-6.74,1.03-13.45,1.79-20.31,1.46-9.83-21.28-31.71-37.21-54.45-42.09-2.68-.58-13.9-1.75-14.99-2.76-.48-.45-5.19-10.41-4.77-10.82,12.03-1.49,24.12-3.03,36.23-3.84,11.27-.75,22.54-1,33.83-.96,1.1-7.44.68-21.55-5.55-26.84-1.76-1.5-11.4-4.34-14.45-5.7-3.64-1.63-7.58-3.66-10.86-5.93-15.69-10.85-24.33-31.45-23.36-50.3,17.52.51,35.64,5.93,47.27,19.67,8.67,10.24,11.27,23.78,10.79,36.95-1.14.26-.78-.19-1.07-.62-7.3-10.7-17.08-19.57-27.72-26.96-.39-.27-.93-1.29-1.44-.48,9.71,10.91,20.84,20.77,28.69,33.2l3.93,7.82c.5-5.88,1.73-11.66,2.4-17.52.36-3.1.16-6.77.54-10.01,4.02-33.82,29.67-53.47,62.8-55Z"/>
        <path d="M60.49,176.3c-22.64-4.59-42-20.36-53.74-39.82,22.62,4.55,42.58,19.79,53.74,39.82Z"/>
      </g>
      <text class="cls-2" transform="translate(184.31 140.62)"><tspan x="0" y="0">rig</tspan><tspan class="cls-1" x="210.48" y="0">r</tspan><tspan class="cls-3" x="279.77" y="0">o</tspan><tspan x="373.9" y="0">w</tspan></text>
    </g>
  </g>
</svg>